# Blender 4.0.2
# www.blender.org
mtllib senile2.mtl
o Cube.001
v 2.000000 -0.007350 4.243892
v 2.000000 1.992650 5.841746
v 2.000000 -0.007350 -2.965569
v 2.000000 1.992650 -5.841746
v 4.000000 -0.007350 4.243892
v 4.000000 1.992650 5.841746
v 4.000000 -0.007350 -2.965569
v 4.000000 1.992650 -5.841746
v 2.000000 -0.007350 0.000000
v 2.000000 0.992650 5.550499
v 2.000000 1.992650 0.000000
v 2.000000 0.992650 -5.191196
v 3.000000 -0.007350 -2.965569
v 3.000000 1.992650 -5.841746
v 4.000000 0.992650 -5.191196
v 4.000000 -0.007350 0.000000
v 4.000000 1.992650 0.000000
v 4.000000 0.992650 5.550499
v 3.000000 -0.007350 4.243892
v 3.000000 1.992650 5.841746
v 3.000000 1.992650 0.000000
v 3.000000 -0.007350 0.000000
v 3.000000 0.992650 5.550499
v 4.000000 0.992650 0.000000
v 3.000000 0.992650 -5.191196
v 2.000000 0.992650 0.000000
v 2.000000 -0.007350 2.164347
v 2.000000 1.492650 5.841746
v 2.000000 1.992650 -2.920873
v 2.000000 0.492650 -4.305777
v 2.500000 -0.007350 -2.965569
v 3.500000 1.992650 -5.841746
v 4.000000 0.492650 -4.305777
v 4.000000 -0.007350 -2.920873
v 4.000000 1.992650 2.920873
v 4.000000 0.492650 5.085220
v 3.500000 -0.007350 4.243892
v 2.500000 1.992650 5.841746
v 2.000000 -0.007350 -2.920873
v 2.000000 0.492650 5.085220
v 2.000000 1.992650 2.920873
v 2.000000 1.492650 -5.841746
v 3.500000 -0.007350 -2.965569
v 2.500000 1.992650 -5.841746
v 4.000000 1.492650 -5.841746
v 4.000000 -0.007350 2.920873
v 4.000000 1.992650 -2.920873
v 4.000000 1.492650 5.841746
v 2.500000 -0.007350 4.243892
v 3.500000 1.992650 5.841746
v 3.000000 1.992650 2.920873
v 3.000000 1.992650 -2.920873
v 3.500000 1.992650 0.000000
v 2.500000 1.992650 0.000000
v 3.000000 -0.007350 2.920873
v 3.000000 -0.007350 -2.920873
v 2.500000 -0.007350 0.000000
v 3.500000 -0.007350 0.000000
v 2.500000 0.992650 5.550499
v 3.500000 0.992650 5.550499
v 3.000000 0.492650 5.085220
v 3.000000 1.492650 5.841746
v 4.000000 0.992650 2.920873
v 4.000000 0.992650 -2.920873
v 4.000000 0.492650 0.000000
v 4.000000 1.492650 0.000000
v 3.500000 0.992650 -5.191196
v 2.500000 0.992650 -5.191196
v 3.000000 0.492650 -4.305777
v 3.000000 1.492650 -5.841746
v 2.000000 0.992650 -2.920873
v 2.000000 0.992650 2.920873
v 2.000000 0.492650 0.000000
v 2.000000 1.492650 0.000000
v 2.000000 1.492650 2.920873
v 2.000000 0.492650 2.920873
v 2.000000 0.492650 -2.920873
v 2.500000 1.492650 -5.841746
v 2.500000 0.492650 -4.305777
v 3.500000 0.492650 -4.305777
v 4.000000 1.492650 -2.920873
v 4.000000 0.492650 -2.920873
v 4.000000 0.492650 2.920873
v 3.500000 1.492650 5.841746
v 3.500000 0.492650 5.085220
v 2.500000 0.492650 5.085220
v 3.500000 -0.007350 -2.920873
v 2.500000 -0.007350 -2.920873
v 2.500000 -0.007350 2.164347
v 2.500000 1.992650 -2.920873
v 3.500000 1.992650 -2.920873
v 3.500000 1.992650 2.920873
v 2.500000 1.992650 2.920873
v 3.500000 -0.007350 2.920873
v 2.500000 1.492650 5.841746
v 4.000000 1.492650 2.920873
v 3.500000 1.492650 -5.841746
v 2.000000 1.492650 -2.920873
vn -1.0000 -0.0000 -0.0000
vn -0.0000 -0.0000 -1.0000
vn 1.0000 -0.0000 -0.0000
vn -0.0000 -0.0000 1.0000
vn -0.0000 -1.0000 -0.0000
vn -0.0000 1.0000 -0.0000
vn -0.0000 -0.6812 0.7321
vn -0.0000 -0.8708 -0.4917
vn -0.0000 -0.7929 -0.6094
vn -0.0000 -0.9369 -0.3495
vn -0.0000 -0.5033 0.8641
vn -0.0000 -0.8596 0.5109
vt 0.562500 0.187500
vt 0.625000 0.187500
vt 0.625000 0.250000
vt 0.562500 0.250000
vt 0.562500 0.437500
vt 0.625000 0.437500
vt 0.625000 0.500000
vt 0.562500 0.500000
vt 0.562500 0.687500
vt 0.625000 0.687500
vt 0.625000 0.750000
vt 0.562500 0.750000
vt 0.562500 0.937500
vt 0.625000 0.937500
vt 0.625000 1.000000
vt 0.562500 1.000000
vt 0.312500 0.687500
vt 0.375000 0.687500
vt 0.375000 0.750000
vt 0.312500 0.750000
vt 0.812500 0.687500
vt 0.875000 0.687500
vt 0.875000 0.750000
vt 0.812500 0.750000
vt 0.687500 0.687500
vt 0.750000 0.687500
vt 0.750000 0.750000
vt 0.687500 0.750000
vt 0.687500 0.562500
vt 0.750000 0.562500
vt 0.750000 0.625000
vt 0.687500 0.625000
vt 0.812500 0.562500
vt 0.875000 0.562500
vt 0.875000 0.625000
vt 0.812500 0.625000
vt 0.187500 0.687500
vt 0.250000 0.687500
vt 0.250000 0.750000
vt 0.187500 0.750000
vt 0.187500 0.562500
vt 0.250000 0.562500
vt 0.250000 0.625000
vt 0.187500 0.625000
vt 0.312500 0.562500
vt 0.375000 0.562500
vt 0.375000 0.625000
vt 0.312500 0.625000
vt 0.437500 0.937500
vt 0.500000 0.937500
vt 0.500000 1.000000
vt 0.437500 1.000000
vt 0.437500 0.812500
vt 0.500000 0.812500
vt 0.500000 0.875000
vt 0.437500 0.875000
vt 0.562500 0.812500
vt 0.625000 0.812500
vt 0.625000 0.875000
vt 0.562500 0.875000
vt 0.437500 0.687500
vt 0.500000 0.687500
vt 0.500000 0.750000
vt 0.437500 0.750000
vt 0.437500 0.562500
vt 0.500000 0.562500
vt 0.500000 0.625000
vt 0.437500 0.625000
vt 0.562500 0.562500
vt 0.625000 0.562500
vt 0.625000 0.625000
vt 0.562500 0.625000
vt 0.437500 0.437500
vt 0.500000 0.437500
vt 0.500000 0.500000
vt 0.437500 0.500000
vt 0.437500 0.312500
vt 0.500000 0.312500
vt 0.500000 0.375000
vt 0.437500 0.375000
vt 0.562500 0.312500
vt 0.625000 0.312500
vt 0.625000 0.375000
vt 0.562500 0.375000
vt 0.437500 0.187500
vt 0.500000 0.187500
vt 0.500000 0.250000
vt 0.437500 0.250000
vt 0.437500 0.062500
vt 0.500000 0.062500
vt 0.500000 0.125000
vt 0.437500 0.125000
vt 0.562500 0.062500
vt 0.625000 0.062500
vt 0.625000 0.125000
vt 0.562500 0.125000
vt 0.500000 0.000000
vt 0.562500 0.000000
vt 0.625000 0.000000
vt 0.375000 0.062500
vt 0.375000 0.125000
vt 0.375000 0.000000
vt 0.437500 0.000000
vt 0.375000 0.187500
vt 0.375000 0.250000
vt 0.375000 0.312500
vt 0.375000 0.375000
vt 0.375000 0.437500
vt 0.375000 0.500000
vt 0.375000 0.812500
vt 0.375000 0.875000
vt 0.375000 0.937500
vt 0.375000 1.000000
vt 0.250000 0.500000
vt 0.312500 0.500000
vt 0.125000 0.562500
vt 0.125000 0.625000
vt 0.125000 0.500000
vt 0.187500 0.500000
vt 0.125000 0.687500
vt 0.125000 0.750000
vt 0.750000 0.500000
vt 0.812500 0.500000
vt 0.875000 0.500000
vt 0.687500 0.500000
s 0
f 98/1/1 29/2/1 4/3/1 42/4/1
f 97/5/2 32/6/2 8/7/2 45/8/2
f 96/9/3 35/10/3 6/11/3 48/12/3
f 95/13/4 38/14/4 2/15/4 28/16/4
f 94/17/5 46/18/5 5/19/5 37/20/5
f 93/21/6 41/22/6 2/23/6 38/24/6
f 92/25/6 51/26/6 20/27/6 50/28/6
f 91/29/6 52/30/6 21/31/6 53/32/6
f 90/33/6 29/34/6 11/35/6 54/36/6
f 89/37/5 55/38/5 19/39/5 49/40/5
f 88/41/5 56/42/5 22/43/5 57/44/5
f 87/45/5 34/46/5 16/47/5 58/48/5
f 86/49/7 59/50/7 10/51/7 40/52/7
f 85/53/7 60/54/7 23/55/7 61/56/7
f 84/57/4 50/58/4 20/59/4 62/60/4
f 83/61/3 63/62/3 18/63/3 36/64/3
f 82/65/3 64/66/3 24/67/3 65/68/3
f 81/69/3 47/70/3 17/71/3 66/72/3
f 80/73/8 67/74/8 15/75/8 33/76/8
f 79/77/8 68/78/8 25/79/8 69/80/8
f 78/81/2 44/82/2 14/83/2 70/84/2
f 77/85/1 71/86/1 12/87/1 30/88/1
f 76/89/1 72/90/1 26/91/1 73/92/1
f 75/93/1 41/94/1 11/95/1 74/96/1
f 72/90/1 75/93/1 74/96/1 26/91/1
f 10/97/1 28/98/1 75/93/1 72/90/1
f 28/98/1 2/99/1 41/94/1 75/93/1
f 27/100/1 76/89/1 73/92/1 9/101/1
f 1/102/1 40/103/1 76/89/1 27/100/1
f 40/103/1 10/97/1 72/90/1 76/89/1
f 39/104/1 77/85/1 30/88/1 3/105/1
f 9/101/1 73/92/1 77/85/1 39/104/1
f 73/92/1 26/91/1 71/86/1 77/85/1
f 68/78/9 78/81/9 70/84/9 25/79/9
f 12/87/9 42/4/9 78/81/9 68/78/9
f 42/4/2 4/3/2 44/82/2 78/81/2
f 31/106/10 79/77/10 69/80/10 13/107/10
f 3/105/10 30/88/10 79/77/10 31/106/10
f 30/88/8 12/87/8 68/78/8 79/77/8
f 43/108/10 80/73/10 33/76/10 7/109/10
f 13/107/10 69/80/10 80/73/10 43/108/10
f 69/80/8 25/79/8 67/74/8 80/73/8
f 64/66/3 81/69/3 66/72/3 24/67/3
f 15/75/3 45/8/3 81/69/3 64/66/3
f 45/8/3 8/7/3 47/70/3 81/69/3
f 34/46/3 82/65/3 65/68/3 16/47/3
f 7/109/3 33/76/3 82/65/3 34/46/3
f 33/76/3 15/75/3 64/66/3 82/65/3
f 46/18/3 83/61/3 36/64/3 5/19/3
f 16/47/3 65/68/3 83/61/3 46/18/3
f 65/68/3 24/67/3 63/62/3 83/61/3
f 60/54/11 84/57/11 62/60/11 23/55/11
f 18/63/11 48/12/11 84/57/11 60/54/11
f 48/12/4 6/11/4 50/58/4 84/57/4
f 37/110/12 85/53/12 61/56/12 19/111/12
f 5/19/12 36/64/12 85/53/12 37/110/12
f 36/64/7 18/63/7 60/54/7 85/53/7
f 49/112/12 86/49/12 40/52/12 1/113/12
f 19/111/12 61/56/12 86/49/12 49/112/12
f 61/56/7 23/55/7 59/50/7 86/49/7
f 56/42/5 87/45/5 58/48/5 22/43/5
f 13/114/5 43/115/5 87/45/5 56/42/5
f 43/115/5 7/109/5 34/46/5 87/45/5
f 39/116/5 88/41/5 57/44/5 9/117/5
f 3/118/5 31/119/5 88/41/5 39/116/5
f 31/119/5 13/114/5 56/42/5 88/41/5
f 27/120/5 89/37/5 49/40/5 1/121/5
f 9/117/5 57/44/5 89/37/5 27/120/5
f 57/44/5 22/43/5 55/38/5 89/37/5
f 52/30/6 90/33/6 54/36/6 21/31/6
f 14/122/6 44/123/6 90/33/6 52/30/6
f 44/123/6 4/124/6 29/34/6 90/33/6
f 47/70/6 91/29/6 53/32/6 17/71/6
f 8/7/6 32/125/6 91/29/6 47/70/6
f 32/125/6 14/122/6 52/30/6 91/29/6
f 35/10/6 92/25/6 50/28/6 6/11/6
f 17/71/6 53/32/6 92/25/6 35/10/6
f 53/32/6 21/31/6 51/26/6 92/25/6
f 51/26/6 93/21/6 38/24/6 20/27/6
f 21/31/6 54/36/6 93/21/6 51/26/6
f 54/36/6 11/35/6 41/22/6 93/21/6
f 55/38/5 94/17/5 37/20/5 19/39/5
f 22/43/5 58/48/5 94/17/5 55/38/5
f 58/48/5 16/47/5 46/18/5 94/17/5
f 59/50/11 95/13/11 28/16/11 10/51/11
f 23/55/11 62/60/11 95/13/11 59/50/11
f 62/60/4 20/59/4 38/14/4 95/13/4
f 63/62/3 96/9/3 48/12/3 18/63/3
f 24/67/3 66/72/3 96/9/3 63/62/3
f 66/72/3 17/71/3 35/10/3 96/9/3
f 67/74/9 97/5/9 45/8/9 15/75/9
f 25/79/9 70/84/9 97/5/9 67/74/9
f 70/84/2 14/83/2 32/6/2 97/5/2
f 71/86/1 98/1/1 42/4/1 12/87/1
f 26/91/1 74/96/1 98/1/1 71/86/1
f 74/96/1 11/95/1 29/2/1 98/1/1
